<svg width="88" height="62" viewBox="0 0 88 62" fill="none" xmlns="http://www.w3.org/2000/svg">
<path d="M86.952 27.1458L74.643 0.473795C74.5414 0.255045 74.3461 0.102706 74.1117 0.0519162C73.8773 0.00504118 73.6352 0.0714466 73.4594 0.231606L61.1504 11.4226C60.998 11.5593 60.9121 11.7546 60.9043 11.9578C60.9004 12.1609 60.9785 12.3601 61.123 12.5046L62.9238 14.3054L60.9394 15.6023C60.1465 16.1219 59.1699 16.2742 58.2519 16.0242L49.6074 13.6726C47.9512 13.2234 46.1621 13.5828 44.8144 14.6414L43.7753 15.4539L42.7362 14.6414C41.3807 13.5828 39.5917 13.2195 37.951 13.6687L29.2948 16.0242C28.3808 16.2703 27.4042 16.118 26.6112 15.6062L24.619 14.3054L26.4198 12.5046C26.5644 12.3601 26.6464 12.1609 26.6386 11.9578C26.6347 11.7546 26.5448 11.5593 26.3925 11.4226L14.0805 0.231606C13.9008 0.0714456 13.6586 0.00113618 13.4282 0.0519162C13.1938 0.0987912 12.9946 0.255035 12.8969 0.473795L0.587907 27.1458C0.455097 27.431 0.517595 27.7669 0.736347 27.9895L5.30665 32.5598C5.45118 32.7044 5.64649 32.7786 5.8379 32.7786C6.02931 32.7786 6.22071 32.7044 6.36915 32.5598L8.05665 30.8723C9.48245 31.3997 12.2441 32.4895 13.1308 33.1496C14.1894 33.9348 14.9316 34.9621 15.7206 36.0441C16.8808 37.6418 18.0839 39.2824 20.3261 40.2238L19.4121 41.1731C18.4824 42.1262 17.9707 43.3919 17.9707 44.7395V45.7707C17.9707 47.466 19.2441 48.8762 20.9316 49.0519L22.8027 49.2511L23.291 51.923C23.5996 53.5832 25.0996 54.7355 26.7832 54.6222L29.0801 54.4503L30.2246 56.8878C30.8925 58.2745 32.4121 59.0167 33.9082 58.6964L37.7051 57.8761L38.5996 59.673C39.166 60.8058 40.2988 61.5089 41.5605 61.5089H43.0683C43.8886 61.5089 44.6738 61.2081 45.2871 60.6573L48.4551 57.8096L50.5567 60.3955C51.1348 61.1104 51.9903 61.5088 52.8848 61.5088C53.0879 61.5088 53.295 61.4893 53.502 61.4463L55.1856 61.0987C56.0215 60.9268 56.7442 60.4034 57.1739 59.669L58.0059 58.2432L60.5293 57.7315C61.6582 57.5049 62.5449 56.6729 62.8418 55.5596L63.4199 53.3994L65.4355 53.1064C66.9082 52.8954 68.0136 51.6142 68.0136 50.1259V47.7275L70.3925 46.4619C71.3183 45.9697 71.912 45.0478 71.9823 43.9971L72.1073 42.0909C72.1698 41.1221 71.7597 40.1807 71.0096 39.5675L70.0409 38.7745C70.9706 37.9464 71.6854 36.9854 72.369 36.0479C73.1581 34.9659 73.9002 33.9424 74.951 33.1573C75.6815 32.6183 77.7635 31.7354 79.6268 31.0245L81.1659 32.5636C81.3104 32.7081 81.5057 32.7824 81.6971 32.7824C81.8886 32.7824 82.08 32.7081 82.2284 32.5636L86.7987 27.9933C87.0214 27.7707 87.0799 27.4347 86.9471 27.1496L86.952 27.1458ZM5.84297 30.97L2.17497 27.302L13.835 2.036L24.808 12.0087L5.84297 30.9737V30.97ZM16.937 35.1653C16.1167 34.0364 15.2729 32.8723 14.0308 31.9505C13.0581 31.2278 10.6636 30.2591 9.22607 29.7083L23.5421 15.3923L25.8038 16.865C26.9522 17.6111 28.3702 17.8337 29.6983 17.4744L38.3545 15.1189C39.542 14.7908 40.8389 15.0564 41.8233 15.8259L50.046 22.2556C50.4483 22.5681 50.6905 23.0369 50.71 23.5408C50.8897 28.0017 51.6475 30.8103 52.1553 32.6697C52.4171 33.6306 52.6202 34.3845 52.5616 34.7478C52.4561 34.99 51.4639 35.4978 50.0304 35.408C48.7921 35.3259 45.7687 34.658 44.5031 30.2049C43.1086 25.2987 41.1203 25.4861 40.7336 25.5799C40.6789 25.5916 40.6242 25.6111 40.5734 25.6346C37.0968 27.3182 31.925 28.4276 31.8742 28.4354C31.7297 28.4666 31.593 28.5408 31.4875 28.6502L21.4755 39.0412C19.2489 38.3107 18.1161 36.7834 16.9403 35.1623L16.937 35.1653ZM54.882 59.6263L53.1984 59.974C52.6398 60.0872 52.0773 59.888 51.7179 59.4466L49.1046 56.2357C49.1046 56.2357 49.1007 56.224 49.0968 56.2201C49.0928 56.2162 49.0889 56.2162 49.0889 56.2123L48.0186 54.8959C47.589 54.3685 47.3585 53.7045 47.3624 53.0287C47.3702 52.1224 47.9601 51.3334 48.8272 51.0678L50.1163 50.6732L56.6007 57.6693L55.878 58.9076C55.6632 59.2787 55.2999 59.5404 54.882 59.6263ZM61.3976 55.1693C61.2491 55.7279 60.8038 56.1459 60.2374 56.2591L57.796 56.7513L51.1398 49.5677L51.4327 47.2318C51.5187 46.5404 51.9406 45.9466 52.5655 45.6341L53.9796 44.931C56.8585 47.7083 61.0694 51.8216 62.0148 52.8841L61.4016 55.1693L61.3976 55.1693ZM65.2257 51.6185L63.128 51.9232C62.3506 50.9935 60.2803 48.9271 54.9366 43.7748L55.2999 42.1303C55.5108 41.1772 56.3701 40.5053 57.3271 40.5053C57.417 40.5053 57.5068 40.5131 57.5967 40.5248L59.8037 40.8217L66.5225 47.5873V50.1264C66.5225 50.8725 65.9639 51.517 65.2256 51.6225L65.2257 51.6185ZM70.6163 41.9896L70.4913 43.8958C70.4561 44.4231 70.1592 44.8841 69.6944 45.1302L67.4092 46.349L61.003 39.8959L61.3624 38.7123C61.6319 37.8334 62.4249 37.2475 63.3429 37.2475H65.8156L70.0656 40.7241C70.4406 41.0327 70.6475 41.5052 70.6163 41.9896ZM74.0616 31.9506C72.8272 32.8764 71.9796 34.0365 71.1632 35.1615C70.4522 36.1381 69.7648 37.056 68.8663 37.8021L66.5616 35.9154C66.4288 35.806 66.2608 35.7474 66.085 35.7474H63.3428C61.7608 35.7474 60.3897 36.763 59.9287 38.2747L59.624 39.2786L57.7959 39.0364C55.9717 38.7982 54.2334 40.013 53.835 41.8098L53.46 43.5129L51.8936 44.2942C50.8194 44.8293 50.0889 45.8567 49.9444 47.0481L49.671 49.2473L48.3976 49.6379C46.9054 50.0949 45.8898 51.4543 45.8742 53.0207C45.8625 54.048 46.2179 55.0519 46.8664 55.8488L47.5148 56.6457L44.2921 59.5402C43.9562 59.841 43.5265 60.005 43.0773 60.005H41.5695C40.882 60.005 40.2609 59.6183 39.9523 59.0011L39.0461 57.1769L41.3586 54.9425C41.6554 54.6535 41.6632 54.1808 41.3781 53.88C41.0929 53.5831 40.6164 53.5753 40.3156 53.8605L37.7648 56.3253L33.6086 57.2237C32.7844 57.3995 31.9602 56.9933 31.593 56.2355L30.4719 53.8566L36.511 48.6964C36.8235 48.4268 36.8626 47.9542 36.593 47.6378C36.3235 47.3213 35.8508 47.2862 35.5344 47.5557L29.2453 52.9307L26.6789 53.1221C25.7727 53.1964 24.9445 52.5557 24.7727 51.6455L24.2571 48.8369L31.054 42.4775C31.3548 42.1963 31.3704 41.7197 31.0892 41.4189C30.8079 41.1142 30.3313 41.1025 30.0267 41.3838L23.1908 47.7783L21.0892 47.5556C20.1673 47.4619 19.4759 46.6923 19.4759 45.7665V44.7353C19.4759 43.7978 19.8469 42.8798 20.4954 42.2158L32.4054 29.8528C33.4523 29.6184 37.8038 28.5989 41.0499 27.0676C41.292 27.1497 42.2101 27.6496 43.0577 30.6145C44.4444 35.4895 47.9327 37.0715 50.7452 36.9075C52.5108 36.8099 53.8624 36.0325 54.0343 35.013C54.1514 34.3099 53.9327 33.5013 53.6007 32.2786C53.1163 30.4856 52.378 27.7747 52.2062 23.4817C52.1671 22.5364 51.7179 21.6614 50.9679 21.0755L44.9991 16.4075L45.7413 15.8255C46.7178 15.0599 48.0186 14.7982 49.214 15.1263L57.8585 17.4779C58.2725 17.5911 58.6983 17.6458 59.1241 17.6458C60.0498 17.6458 60.9679 17.3802 61.7608 16.8646L64.0108 15.3958L78.4718 29.8568C76.9015 30.4701 74.9249 31.306 74.0616 31.9466L74.0616 31.9506ZM81.7022 30.9701L80.3663 29.6342C80.3663 29.6342 80.3624 29.6303 80.3585 29.6264L62.7375 12.0054L73.7104 2.03271L85.3705 27.2987L81.7025 30.9667L81.7022 30.9701Z" fill="#ED6724"/>
</svg>
