<svg width="99" height="205" viewBox="0 0 99 205" fill="none" xmlns="http://www.w3.org/2000/svg">
<path d="M106.439 234.306L104.371 233.907C92.8164 202.153 68.3003 180.745 46.0916 161.37C33.8989 150.734 22.4004 140.704 14.0547 129.879C-8.4525 100.689 -7.90283 66.1315 63.975 0.00839225L66.012 0.40165C-5.84612 66.1812 -6.67275 100.245 15.3872 128.855C23.6239 139.537 35.0652 149.518 47.197 160.1C69.8549 179.868 94.9026 201.724 106.439 234.306ZM118.614 236.657L116.606 236.269C105.904 201.764 79.4797 179.656 55.7271 159.801C42.9882 149.153 31.0156 139.144 22.5711 128.192C1.01124 100.231 2.54335 66.5022 73.0964 1.76939L75.134 2.16279C4.60306 66.5525 2.79207 99.789 23.9029 127.168C32.232 137.97 44.1394 147.923 56.8073 158.513C81.0161 178.749 107.969 201.306 118.614 236.657ZM130.549 238.961L128.564 238.578C119.013 201.183 90.65 178.477 65.357 158.245C52.0975 147.638 39.6778 137.703 31.1608 126.657C10.4997 99.8612 12.9247 66.9355 82.2178 3.52964L84.257 3.92333C14.988 66.9873 12.2824 99.4215 32.4933 125.633C40.8794 136.509 53.2273 146.386 66.4095 156.931C92.1721 177.54 121.095 200.683 130.549 238.961ZM142.161 241.203L140.222 240.829C132.121 200.405 101.803 177.204 74.9764 156.699C61.2185 146.183 48.3765 136.366 39.8136 125.26C20.0073 99.5731 23.2458 67.4278 91.336 5.29081L93.3759 5.68464C25.3121 67.4801 21.7905 99.135 41.1454 124.236C49.56 135.149 62.325 144.907 75.9998 155.36C103.307 176.233 134.195 199.872 142.161 241.203ZM153.511 243.394L151.602 243.026C145.259 199.42 112.944 175.838 84.5898 155.16C70.3469 144.773 57.0975 135.11 48.5221 123.989C29.5322 99.3603 33.5352 67.9636 100.462 7.05342L102.496 7.4461C35.5861 68.0231 31.3175 98.9234 49.8539 122.964C58.2822 133.895 71.4365 143.488 85.5767 153.801C114.428 174.841 147.341 198.85 153.511 243.394ZM164.537 245.523L162.664 245.161C158.373 198.241 124.059 174.381 94.1906 153.634C79.4896 143.423 65.8602 133.956 57.2823 122.831C39.0721 99.2141 43.777 68.5452 109.587 8.81439L111.622 9.20722C45.8318 68.6047 40.8587 98.779 58.6147 121.808C67.0232 132.713 80.5548 142.112 95.149 152.25C125.527 173.35 160.452 197.638 164.537 245.523ZM175.301 247.601L173.439 247.241C171.499 196.855 135.153 172.832 103.78 152.116C88.6347 142.115 74.6413 132.875 66.0876 121.782C48.623 99.132 53.9738 69.1709 118.71 10.5757L120.745 10.9686C56.031 69.23 50.4115 98.6988 67.4202 120.757C75.7951 131.619 89.6813 140.788 104.709 150.712C136.609 171.777 173.606 196.214 175.301 247.601ZM185.741 249.616L183.923 249.266C184.623 195.27 146.223 171.198 113.362 150.61C97.7867 140.853 83.4454 131.868 74.9345 120.83C58.1845 99.107 64.1291 69.8351 127.83 12.3365L129.866 12.7296C66.1893 69.8948 59.9733 98.6762 76.2661 119.807C84.5902 130.603 98.8106 139.511 114.254 149.186C147.658 170.112 186.71 194.605 185.741 249.616ZM195.912 251.58L194.104 251.231C197.716 193.495 157.264 169.476 122.931 149.116C106.942 139.635 92.2703 130.934 83.8178 119.971C67.7533 99.1369 74.2456 70.5352 136.95 14.0964L138.986 14.4896C76.3088 70.5955 69.5442 98.7073 85.1496 118.947C93.4062 129.654 107.944 138.276 123.788 147.671C158.683 168.365 199.83 192.792 195.912 251.58ZM205.773 253.484L204.079 253.157C208.733 211.266 190.577 186.852 167.229 169.235C156.215 160.924 144.002 154.085 132.487 147.638C116.102 138.464 101.121 130.075 92.734 119.199C77.3277 99.2183 84.3259 71.2703 146.065 15.8578L148.103 16.2512C86.3914 71.331 79.1197 98.7912 94.0657 118.175C102.233 128.767 117.075 137.078 133.308 146.166C144.854 152.631 157.101 159.489 168.24 167.894C192.065 185.871 210.613 210.762 205.773 253.484ZM215.399 255.342L213.724 255.019C220.563 211.426 203.191 186.412 179.847 168.796C167.998 159.856 154.594 152.788 142.033 146.166C125.262 137.324 109.981 129.268 101.684 118.507C86.9121 99.3481 94.3928 72.0306 155.19 17.6187L157.222 18.0111C96.4456 72.0966 88.7049 98.9204 103.016 117.482C111.09 127.953 126.215 135.927 142.816 144.68C155.435 151.333 168.9 158.432 180.857 167.455C204.679 185.431 222.432 210.926 215.399 255.342ZM224.77 257.152L223.109 256.831C232.221 211.396 215.613 185.741 192.248 168.111C179.676 158.624 165.121 151.421 151.563 144.711C134.422 136.228 118.862 128.527 110.66 117.891C96.4978 99.5232 104.428 72.8189 164.31 19.3794L166.342 19.7718C106.482 72.8852 98.2911 99.0971 111.992 116.866C119.953 127.191 135.35 134.811 152.31 143.205C165.931 149.945 180.553 157.183 193.258 166.77C217.102 184.761 234.084 210.899 224.77 257.152ZM233.897 258.914L232.247 258.595C243.722 211.197 227.87 184.869 204.476 167.216C191.254 157.239 175.59 149.986 161.084 143.272C143.586 135.171 127.76 127.845 119.666 117.347C106.091 99.7415 114.436 73.6361 173.431 21.1411L175.464 21.5337C116.493 73.7029 107.885 99.3172 120.998 116.323C128.836 126.488 144.486 133.733 161.788 141.744C176.368 148.493 192.111 155.781 205.486 165.875C229.362 183.89 245.578 210.704 233.897 258.914ZM242.787 260.63L241.149 260.314C255.074 210.843 239.984 183.815 216.555 166.136C202.752 155.721 186.004 148.496 170.586 141.845C152.747 134.15 136.672 127.216 128.694 116.87C115.686 99.9982 124.415 74.4779 182.549 22.8999L184.583 23.2926C126.475 74.5437 117.481 99.5748 130.026 115.845C137.729 125.835 153.619 132.69 171.253 140.296C186.748 146.98 203.579 154.24 217.565 164.793C241.477 182.838 256.919 210.359 242.787 260.63ZM251.456 262.304L249.822 261.988C266.279 210.353 251.971 182.598 228.51 164.894C214.17 154.074 196.369 146.952 180.077 140.433C161.906 133.162 145.594 126.636 137.747 116.459C125.283 100.295 134.37 75.3462 191.667 24.6611L193.702 25.0539C136.432 75.4117 127.081 99.8736 139.08 115.434C146.641 125.241 162.753 131.688 180.701 138.869C197.087 145.425 214.991 152.588 229.521 163.553C253.467 181.623 268.123 209.875 251.456 262.304ZM259.915 263.937L258.279 263.621C277.346 209.734 263.843 181.231 240.354 163.507C225.531 152.32 206.691 145.365 189.55 139.037C171.06 132.21 154.529 126.106 146.818 116.108C134.882 100.627 144.298 76.237 200.782 26.4209L202.817 26.8137C146.363 76.3016 136.681 100.207 148.151 115.084C155.562 124.695 171.88 130.72 190.13 137.458C207.379 143.826 226.337 150.825 241.365 162.165C265.344 180.26 279.196 209.263 259.915 263.937ZM268.175 265.532L266.535 265.215C288.292 208.994 275.611 179.725 252.104 161.987C236.841 150.469 216.975 143.742 199.008 137.658C180.214 131.294 163.475 125.625 155.911 115.816C144.484 100.995 154.214 77.1459 209.9 28.1819L211.931 28.5742C156.271 77.215 146.282 100.576 157.243 114.792C164.494 124.195 181.004 129.787 199.543 136.065C217.63 142.19 237.63 148.962 253.114 160.646C277.119 178.758 290.149 208.53 268.175 265.532ZM276.25 267.09L274.604 266.773C299.123 208.142 287.287 178.092 263.768 160.345C248.106 148.527 227.222 142.087 208.446 136.297C189.362 130.412 172.434 125.19 165.022 115.578C154.086 101.395 164.115 78.0733 219.019 29.9418L221.049 30.3337C166.169 78.1435 155.886 100.977 166.354 114.554C173.436 123.738 190.124 128.885 208.938 134.687C227.844 140.518 248.875 147.003 264.778 159.004C288.8 177.13 300.989 207.685 276.25 267.09ZM284.149 268.615L282.495 268.296C309.846 207.183 298.875 176.34 275.355 158.593C259.333 146.502 237.433 140.404 217.867 134.956C198.506 129.564 181.404 124.801 174.15 115.394C163.691 101.828 173.994 79.0215 228.137 31.702L230.167 32.0941C176.051 79.0907 165.491 101.411 175.482 114.37C182.388 123.327 199.238 128.019 218.314 133.331C238.021 138.819 260.078 144.961 276.366 157.251C300.395 175.383 311.722 206.734 284.149 268.615ZM291.881 270.108L290.22 269.788C320.469 206.123 310.384 174.477 286.875 156.737C270.517 144.394 247.608 138.692 227.268 133.631C207.642 128.747 190.381 124.451 183.295 115.26C173.295 102.29 183.853 79.9883 237.253 33.462L239.284 33.8541C185.911 80.0577 175.095 101.875 184.627 114.236C191.353 122.959 208.347 127.188 227.67 131.997C248.166 137.097 271.25 142.843 287.886 155.396C311.912 173.526 322.355 205.684 291.881 270.108ZM299.46 271.572L297.789 271.249C330.998 204.969 321.819 172.509 298.332 154.786C281.669 142.213 257.749 136.96 236.647 132.327C216.772 127.964 199.368 124.142 192.454 115.175C182.898 102.782 193.692 80.9738 246.368 35.2219L248.399 35.614C195.753 81.042 184.7 102.367 193.785 114.151C200.325 122.632 217.449 126.392 237.004 130.685C258.275 135.355 282.386 140.649 299.343 153.444C323.354 171.563 332.895 204.54 299.46 271.572ZM305.207 272.681C341.431 203.727 333.185 170.442 309.732 152.745C292.793 139.962 267.855 135.21 246.002 131.046C225.894 127.214 208.364 123.873 201.627 115.136C192.501 103.301 203.513 81.9758 255.482 36.9814L257.514 37.3737C205.576 82.0446 194.305 102.888 202.96 114.111C209.306 122.342 226.545 125.628 246.32 129.396C268.352 133.594 293.491 138.385 310.743 151.403C334.728 169.502 343.335 203.311 306.887 273.005L305.207 272.681Z" fill="#F37030" fill-opacity="0.15"/>
</svg>
