<svg width="52" height="56" viewBox="0 0 52 56" fill="none" xmlns="http://www.w3.org/2000/svg">
<g opacity="0.9">
<path d="M9.27711 12.1299C6.44754 11.7391 4.29849 9.32315 4.29849 6.40984C4.29849 3.21232 6.91316 0.654297 10.1367 0.654297C13.3603 0.654297 15.975 3.24785 15.975 6.40984C15.975 9.32315 13.7901 11.7035 10.9963 12.1299V40.6589L27.6514 29.8939V12.1299C24.8219 11.7391 22.6728 9.32315 22.6728 6.40984C22.6728 3.21232 25.2875 0.654297 28.5111 0.654297C31.7346 0.654297 34.3493 3.24785 34.3493 6.40984C34.3493 9.32315 32.1644 11.7035 29.3707 12.1299V28.8281L39.901 22.0067C38.8981 19.875 39.2921 17.2459 41.0472 15.505C43.3395 13.2668 46.9928 13.2668 49.2852 15.505C51.5775 17.7433 51.5775 21.4027 49.2852 23.641C46.9928 25.8792 43.3395 25.8792 41.0472 23.641C40.9755 23.5699 40.8681 23.4633 40.7964 23.3923L29.3707 30.7821V54.124C29.3707 54.5859 29.0125 54.9412 28.5469 54.9412C28.0813 54.9412 27.7231 54.5859 27.7231 54.124V31.8479L11.068 42.613V54.124C11.068 54.5859 10.7098 54.9412 10.2442 54.9412C9.77856 54.9412 9.42038 54.5859 9.42038 54.124V43.6788L2.40017 48.2264C2.00618 48.4751 1.50474 48.3685 1.25401 47.9777C1.00329 47.5869 1.11074 47.0895 1.50474 46.8408L9.4562 41.6892V12.1299H9.27711ZM10.1009 10.5311C12.3932 10.5311 14.2557 8.68364 14.2557 6.40984C14.2557 4.13605 12.429 2.28859 10.1367 2.28859C7.84442 2.28859 5.98191 4.13605 5.98191 6.40984C5.98191 8.68364 7.84442 10.5311 10.1367 10.5311M28.4394 10.5311C30.7317 10.5311 32.5942 8.68364 32.5942 6.40984C32.5942 4.13605 30.7317 2.28859 28.4394 2.28859C26.1471 2.28859 24.2846 4.13605 24.2846 6.40984C24.2846 8.68364 26.1471 10.5311 28.4394 10.5311ZM42.1575 22.5041C43.7693 24.1028 46.4198 24.1028 48.0316 22.5041C49.6433 20.9053 49.6433 18.3118 48.0316 16.6775C46.4198 15.0787 43.7693 15.0787 42.1575 16.6775C40.5457 18.2762 40.5457 20.8698 42.1575 22.5041Z" fill="#ED6724"/>
<path d="M10.1009 10.5311C12.3932 10.5311 14.2557 8.68364 14.2557 6.40984C14.2557 4.13605 12.429 2.28859 10.1367 2.28859C7.84442 2.28859 5.98191 4.13605 5.98191 6.40984C5.98191 8.68364 7.84442 10.5311 10.1367 10.5311M9.27711 12.1299C6.44754 11.7391 4.29849 9.32315 4.29849 6.40984C4.29849 3.21232 6.91316 0.654297 10.1367 0.654297C13.3603 0.654297 15.975 3.24785 15.975 6.40984C15.975 9.32315 13.7901 11.7035 10.9963 12.1299V40.6589L27.6514 29.8939V12.1299C24.8219 11.7391 22.6728 9.32315 22.6728 6.40984C22.6728 3.21232 25.2875 0.654297 28.5111 0.654297C31.7346 0.654297 34.3493 3.24785 34.3493 6.40984C34.3493 9.32315 32.1644 11.7035 29.3707 12.1299V28.8281L39.901 22.0067C38.8981 19.875 39.2921 17.2459 41.0472 15.505C43.3395 13.2668 46.9928 13.2668 49.2852 15.505C51.5775 17.7433 51.5775 21.4027 49.2852 23.641C46.9928 25.8792 43.3395 25.8792 41.0472 23.641C40.9755 23.5699 40.8681 23.4633 40.7964 23.3923L29.3707 30.7821V54.124C29.3707 54.5859 29.0125 54.9412 28.5469 54.9412C28.0813 54.9412 27.7231 54.5859 27.7231 54.124V31.8479L11.068 42.613V54.124C11.068 54.5859 10.7098 54.9412 10.2442 54.9412C9.77856 54.9412 9.42038 54.5859 9.42038 54.124V43.6788L2.40017 48.2264C2.00618 48.4751 1.50474 48.3685 1.25401 47.9777C1.00329 47.5869 1.11074 47.0895 1.50474 46.8408L9.4562 41.6892V12.1299H9.27711ZM28.4394 10.5311C30.7317 10.5311 32.5942 8.68364 32.5942 6.40984C32.5942 4.13605 30.7317 2.28859 28.4394 2.28859C26.1471 2.28859 24.2846 4.13605 24.2846 6.40984C24.2846 8.68364 26.1471 10.5311 28.4394 10.5311ZM42.1575 22.5041C43.7693 24.1028 46.4198 24.1028 48.0316 22.5041C49.6433 20.9053 49.6433 18.3118 48.0316 16.6775C46.4198 15.0787 43.7693 15.0787 42.1575 16.6775C40.5457 18.2762 40.5457 20.8698 42.1575 22.5041Z" stroke="#ED6724" stroke-width="0.5"/>
</g>
</svg>
