<svg width="59" height="68" viewBox="0 0 59 68" fill="none" xmlns="http://www.w3.org/2000/svg">
<path d="M53.1879 15.4426H24.0875L18.3751 5.0125C17.8369 2.52109 15.6016 0.663086 12.9938 0.663086C9.97202 0.663086 7.52974 3.11227 7.48835 6.11041L3.18333 28.7442C3.01775 29.2088 2.89356 29.7154 2.89356 30.2644C2.89356 32.7135 4.8805 34.6982 7.32278 34.6982C9.18552 34.6982 10.7585 33.5582 11.4208 31.9112H18.3751V28.533H16.7607V30.3067H11.752L13.8217 18.5675L14.9393 20.5099C15.0635 23.0436 17.1746 25.0704 19.7411 25.0704H35.9263L25.5363 39.8078C25.2466 40.23 24.9982 40.7367 24.7498 41.2013H18.0439L8.73019 57.4165H0.865234V67.5088H49.5866V57.4165H46.9787L40.9351 46.9019L51.6149 31.7423C53.0223 29.7154 53.4362 27.3085 52.9394 25.0704H53.2292C55.8785 25.0704 58.031 22.9168 58.031 20.2566C58.031 17.5963 55.8785 15.4426 53.2292 15.4426M12.9938 2.26772C15.1463 2.26772 16.9263 4.04127 16.9263 6.19485C16.9263 8.34845 15.1463 10.122 12.9938 10.122C10.8413 10.122 9.06134 8.34845 9.06134 6.19485C9.06134 4.04127 10.8413 2.26772 12.9938 2.26772ZM7.36417 33.0514C5.83257 33.0514 4.59074 31.8268 4.54934 30.2644L4.75632 29.1242C5.17026 28.1108 6.20513 27.393 7.36417 27.393C8.93716 27.393 10.179 28.6597 10.179 30.2221C10.179 31.7846 8.89576 33.0514 7.36417 33.0514ZM10.6757 27.3085C9.84784 26.3795 8.68879 25.7883 7.36417 25.7883C6.61907 25.7883 5.91537 25.9572 5.29444 26.295L8.48182 9.40413C8.48182 9.40413 8.68879 9.65749 8.77158 9.78418L12.5798 16.3716L10.6757 27.3085ZM15.4361 18.103L11.6692 11.5999C12.0832 11.6844 12.5385 11.7688 12.9938 11.7688C15.3948 11.7688 17.4644 10.2064 18.2096 8.05286L22.2662 15.4426H19.7411C17.8784 15.4426 16.2226 16.5405 15.4361 18.1452M47.9721 65.9042H2.47962V59.0212H47.9721V65.9042ZM45.0745 57.4165H10.6343L19.0374 42.8058H36.7543L45.1573 57.4165H45.0745ZM50.2488 30.8133L39.9831 45.3818L37.6235 41.2435H26.5298C26.5298 41.2435 26.6954 40.9479 26.8196 40.779L39.2793 23.0436C40.3141 21.5656 41.8457 20.5943 43.6257 20.2987C45.4057 20.0031 47.1857 20.3833 48.6345 21.4389C50.0833 22.4945 51.0768 24.0148 51.3666 25.7883C51.6563 27.5618 51.2423 29.3354 50.2488 30.8133ZM53.1879 23.4659H52.3599C51.7804 22.1568 50.8284 20.9744 49.5866 20.1298C47.7652 18.8208 45.5713 18.3563 43.3774 18.7363C41.1834 19.1164 39.2793 20.341 37.9961 22.1568L37.044 23.508H19.7411C18.0026 23.508 16.5538 22.0724 16.5538 20.2987C16.5538 18.5252 18.0026 17.0895 19.7411 17.0895H53.1879C54.9264 17.0895 56.3752 18.5252 56.3752 20.2987C56.3752 22.0724 54.9679 23.508 53.1879 23.508" fill="#ED6724"/>
<path d="M44.9918 23.4238C43.3773 23.4238 42.0527 24.7329 42.0527 26.3797C42.0527 28.0266 43.3773 29.3356 44.9918 29.3356C46.6061 29.3356 47.9307 28.0266 47.9307 26.3797C47.9307 24.7329 46.6061 23.4238 44.9918 23.4238ZM44.9918 27.7311C44.2466 27.7311 43.6671 27.1398 43.6671 26.3797C43.6671 25.6197 44.288 25.0285 44.9918 25.0285C45.6954 25.0285 46.3164 25.6197 46.3164 26.3797C46.3164 27.1398 45.7368 27.7311 44.9918 27.7311Z" fill="#ED6724"/>
</svg>
