<svg width="76" height="167" viewBox="0 0 76 167" fill="none" xmlns="http://www.w3.org/2000/svg">
<path d="M215.19 -55.36H217.296C234.66 -26.3721 262.79 -9.99926 288.269 4.81368C302.257 12.9461 315.448 20.6148 325.694 29.6608C353.327 54.0549 359.338 88.0903 301.298 166.64H299.223C357.309 88.4314 351.663 54.8284 324.58 30.9192C314.468 21.992 301.342 14.3614 287.424 6.27008C261.43 -8.84359 232.693 -25.556 215.19 -55.36ZM202.79 -55.36H204.834C221.883 -23.5096 252.02 -6.81087 279.105 8.18098C293.632 16.2213 307.285 23.7788 317.652 32.9314C344.122 56.2992 349.011 89.7066 292.008 166.64H289.933C346.979 90.0477 342.457 57.0705 316.539 34.1898C306.313 25.1622 292.735 17.6472 278.289 9.65032C250.683 -5.62931 219.943 -22.6683 202.79 -55.36ZM190.635 -55.36H192.656C209.123 -20.4537 241.275 -3.53645 269.945 11.5346C284.975 19.4355 299.053 26.8363 309.509 36.0673C334.875 58.4606 338.736 91.249 282.718 166.641H280.642C336.7 91.5893 333.208 59.2303 308.395 37.3257C298.099 28.2364 284.103 20.879 269.161 13.0237C239.959 -2.32748 207.173 -19.5683 190.635 -55.36ZM178.808 -55.36H180.782C196.399 -17.2051 230.566 -0.172188 260.793 14.876C276.295 22.5935 290.765 29.7978 301.278 39.079C325.595 60.5459 328.508 92.7222 273.432 166.64H271.354C326.47 93.0625 323.927 61.314 300.165 40.3375C289.834 31.2169 275.451 24.056 260.042 16.3849C229.273 1.06647 194.464 -16.2885 178.808 -55.36ZM167.248 -55.36H169.192C183.686 -13.7472 219.886 3.28115 251.646 18.2091C267.599 25.708 282.44 32.684 292.968 41.9781C316.283 62.5603 318.304 94.1466 264.137 166.639H262.066C316.279 94.477 314.613 63.3277 291.855 43.2366C281.507 34.1015 266.773 27.1758 250.934 19.7309C218.618 4.54189 181.75 -12.7933 167.248 -55.36ZM156.019 -55.36H157.926C171.034 -10.1043 209.249 6.81898 242.508 21.5276C258.879 28.767 274.055 35.4788 284.586 44.7752C306.943 64.5123 308.138 95.517 254.844 166.64H252.771C306.109 95.8481 305.272 65.2782 283.472 46.0329C273.149 36.9192 258.081 30.2561 241.83 23.0685C208.003 8.10942 169.107 -9.11842 156.019 -55.36ZM145.056 -55.36H146.952C158.408 -6.25511 198.65 10.4421 233.381 24.8355C250.147 31.7841 265.638 38.2043 276.14 47.4748C297.581 66.4035 298.007 96.8356 245.552 166.64H243.479C295.976 97.1675 295.907 67.1678 275.026 48.7333C264.743 39.6561 249.371 33.2854 232.734 26.3902C197.42 11.7546 156.461 -5.22581 145.056 -55.36ZM134.423 -55.36H136.275C145.823 -2.21099 188.09 14.1459 224.258 28.1305C241.4 34.7586 257.185 40.862 267.634 50.0862C288.198 68.2405 287.91 98.1085 236.263 166.64H234.19C285.876 98.4404 286.523 69.0026 266.52 51.3438C256.301 42.3215 240.649 36.2705 223.652 29.6981C186.887 15.4835 143.9 -1.1619 134.423 -55.36ZM124.064 -55.36H125.906C133.304 2.01355 177.575 17.9289 215.146 31.4118C232.642 37.6904 248.697 43.452 259.074 52.6137C278.797 70.025 277.844 99.3388 226.976 166.641H224.901C275.807 99.6707 277.12 70.7864 257.961 53.8722C247.824 44.9237 231.916 39.2145 214.578 32.9931C176.392 19.2894 131.362 3.10452 124.064 -55.36ZM114.021 -55.36H115.746C119.118 -13.346 141.573 7.1829 167.837 20.0552C180.226 26.1275 193.514 30.5272 206.043 34.6748C223.87 40.5765 240.17 45.9728 250.466 55.0621C269.381 71.7601 267.807 100.528 217.691 166.639H215.616C265.768 100.86 267.702 72.5191 249.353 56.3198C239.326 47.468 223.177 42.1213 205.516 36.2751C192.954 32.116 179.629 27.7042 167.099 21.5634C140.297 8.42841 117.368 -12.4956 114.021 -55.36ZM104.217 -55.36H105.923C107.472 -11.2615 129.27 10.0066 155.531 22.8774C168.86 29.4095 183.36 33.8084 196.949 37.9294C215.092 43.4322 231.623 48.4455 241.809 57.4382C259.946 73.4494 257.779 101.69 208.399 166.64H206.329C255.751 102.014 258.266 74.2092 240.696 58.6966C230.784 49.9461 214.421 44.9838 196.462 39.5366C182.811 35.3965 168.244 30.9786 154.793 24.3856C127.996 11.2514 105.732 -10.4157 104.217 -55.36ZM94.6733 -55.36H96.3655C96.0312 -9.02174 117.202 13.0199 143.485 25.9014C157.627 32.8324 173.284 37.146 187.868 41.1643C206.306 46.2445 223.043 50.8558 233.113 59.745C250.5 75.0947 247.776 102.818 199.11 166.64H197.04C245.747 103.142 248.82 75.8529 231.999 61.0034C222.225 52.3747 205.664 47.8113 187.42 42.7851C172.768 38.7486 157.039 34.4144 142.747 27.4096C115.925 14.2639 94.2963 -8.18048 94.6733 -55.36ZM85.3774 -55.36H87.0582C84.7765 -6.64566 105.332 16.1999 131.648 29.0982C146.522 36.3878 163.277 40.5392 178.792 44.3824C197.508 49.0195 214.436 53.2129 224.374 61.9855C241.04 76.6987 237.795 103.913 189.821 166.639H187.75C235.762 104.237 239.358 77.4555 223.26 63.244C213.637 54.7485 196.897 50.6016 178.39 46.0161C162.796 42.1532 145.956 37.9812 130.91 30.6063C104.053 17.4439 83.0478 -5.8105 85.3774 -55.36ZM76.3238 -55.36H77.9916C73.6971 -4.14626 93.6368 19.5307 119.993 32.448C135.52 40.0581 153.334 43.9766 169.733 47.5845C188.707 51.758 205.805 55.5189 215.599 64.1659C231.571 78.2655 227.837 104.978 180.535 166.641H178.463C225.802 105.304 229.888 79.0215 214.486 65.4244C205.029 57.0758 188.128 53.3575 169.371 49.2319C152.891 45.6066 134.988 41.6683 119.256 33.9576C92.3566 20.7732 71.9774 -3.32175 76.3238 -55.36ZM67.4948 -55.36H69.1588C62.7882 -1.54103 82.0981 22.9985 108.49 35.9333C124.621 43.8395 143.45 47.4581 160.682 50.7706C179.902 54.4645 197.155 57.78 206.789 66.2854C222.09 79.7935 217.898 106.012 171.248 166.64H169.176C215.861 106.339 220.406 80.548 205.675 67.5439C196.391 59.3483 179.349 56.0724 160.365 52.4241C143.034 49.0934 124.096 45.4535 107.751 37.4422C80.814 24.2394 61.0685 -0.722622 67.4948 -55.36ZM58.8797 -55.36H60.5461C52.0392 1.16469 70.701 26.5911 97.1233 39.5412C113.799 47.7146 133.615 50.9723 151.645 53.9369C171.093 57.1344 188.483 59.9939 197.948 68.3494C212.603 81.2872 207.981 107.02 161.964 166.64H159.892C205.941 107.348 210.916 82.0401 196.834 69.6078C187.735 61.5759 170.571 58.753 151.375 55.5973C133.231 52.6145 113.29 49.3355 96.3853 41.0501C69.4109 27.829 50.312 1.97777 58.8797 -55.36ZM50.4666 -55.36H52.1367C41.4319 3.96557 59.4311 30.3003 85.8747 43.2609C103.045 51.6765 123.825 54.5155 142.62 57.0834C162.28 59.7693 179.789 62.1622 189.076 70.36C203.106 82.7459 198.072 108.007 152.678 166.639H150.609C196.04 108.329 201.42 83.4981 187.962 71.6177C179.06 63.7594 161.789 61.3986 142.397 58.7492C123.476 56.1637 102.556 53.3057 85.1375 44.7683C58.1342 31.5351 39.6963 4.77333 50.4666 -55.36ZM42.243 -55.36H43.9193C30.9594 6.85553 48.277 34.1168 74.7336 47.0835C92.3512 55.7184 114.078 58.083 133.611 60.2094C153.464 62.37 171.075 64.2878 180.175 72.3204C193.601 84.1733 188.176 108.973 143.391 166.64H141.323C186.145 109.294 191.913 84.9248 179.062 73.5789C170.367 65.9033 153.006 64.0129 133.433 61.8828C113.765 59.7419 91.8851 57.3605 73.9964 48.5924C46.9739 35.3486 29.2139 7.65796 42.243 -55.36ZM34.1984 -55.36H35.8823C20.6118 9.82999 37.231 38.0337 63.6884 51.0005C81.712 59.8348 104.371 61.6711 124.616 63.3117C144.647 64.9356 162.342 66.3699 171.247 74.2313C184.089 85.5688 178.296 109.915 134.105 166.64H132.036C176.263 110.237 182.401 86.3195 170.134 75.4898C161.655 68.0045 144.221 66.5915 124.484 64.992C104.094 63.3391 81.2725 61.4892 62.9504 52.5094C35.9196 39.2617 18.8549 10.6263 34.1984 -55.36ZM26.3229 -55.36H28.0152C10.3823 12.8844 26.2841 42.0451 52.7292 55.0065C71.1305 64.0251 94.7053 65.2805 115.636 66.3943C135.831 67.4701 153.594 68.4156 162.294 76.0965C174.572 86.9354 168.432 110.835 124.82 166.64H122.752C166.398 111.157 172.882 87.6845 161.181 77.355C152.923 70.0646 135.435 69.1335 115.551 68.0753C94.4593 66.9524 70.7048 65.687 51.9912 56.5155C24.9643 43.2686 8.61388 13.6731 26.3229 -55.36ZM18.6043 -55.36H20.3064C0.26314 16.0134 15.4293 46.1448 41.85 59.094C60.5941 68.2809 85.0766 68.9036 106.674 69.4525C127.015 69.9695 144.829 70.4224 153.317 77.9161C165.049 88.273 158.584 111.732 115.537 166.64H113.468C156.549 112.056 163.358 89.0222 152.204 79.1745C144.175 72.0867 126.649 71.6413 106.635 71.1328C84.8641 70.5793 60.1866 69.9519 41.1121 60.603C14.1011 47.3644 -1.51744 16.7945 18.6043 -55.36ZM12.7508 -55.36C-9.74556 19.2102 4.66127 50.329 31.0432 63.2592C50.0987 72.599 75.4853 72.5381 97.7318 72.4841C118.201 72.4346 136.046 72.392 144.318 79.6938C155.521 89.584 148.752 112.61 106.255 166.64H104.185C146.713 112.934 153.828 90.3316 143.204 80.9522C135.412 74.0737 117.863 74.1156 97.7318 74.1643C75.304 74.2184 49.7118 74.28 30.3052 64.7681C3.32393 51.5441 -11.536 19.9799 11.0403 -55.36H12.7508Z" fill="#F37030" fill-opacity="0.15"/>
</svg>
