<svg width="103" height="118" viewBox="0 0 103 118" fill="none" xmlns="http://www.w3.org/2000/svg">
<path d="M0.712891 36.1215V82.2308C0.712891 85.784 2.59841 89.0704 5.66593 90.8637L46.5209 114.748C49.6491 116.577 53.5218 116.57 56.6439 114.731L97.1465 90.8691C100.198 89.0715 102.071 85.7944 102.071 82.2532V36.099C102.071 32.5884 100.23 29.3349 97.2204 27.527L56.7174 3.1938C53.5586 1.29609 49.6121 1.28937 46.4469 3.17633L5.59225 27.532C2.56641 29.3358 0.712891 32.5987 0.712891 36.1215Z" stroke="#21409A" stroke-linecap="round"/>
<path d="M14.4102 37.6808L51.392 58.6176" stroke="#ED6724" stroke-linecap="round"/>
<path d="M51.3926 58.8131V101.078" stroke="#ED6724" stroke-linecap="round"/>
<path d="M87.9951 37.6807L51.3926 58.8131" stroke="#ED6724" stroke-linecap="round"/>
</svg>
