<svg width="36" height="36" viewBox="0 0 36 36" fill="none" xmlns="http://www.w3.org/2000/svg">
<g clip-path="url(#clip0_1027_522)">
<rect x="0.5" y="0.997559" width="34.92" height="34" rx="17" stroke="#274DB9"/>
<path d="M19.0652 26.3247L26.5652 19.0331C26.7017 18.8944 26.8088 18.7308 26.8802 18.5518C27.0302 18.1968 27.0302 17.7985 26.8802 17.4435C26.8088 17.2645 26.7017 17.1009 26.5652 16.9622L19.0652 9.67058C18.9253 9.53461 18.7593 9.42675 18.5765 9.35316C18.3938 9.27957 18.1979 9.2417 18.0002 9.2417C17.6007 9.2417 17.2176 9.39597 16.9352 9.67058C16.6527 9.94519 16.494 10.3176 16.494 10.706C16.494 11.0944 16.6527 11.4668 16.9352 11.7414L21.8852 16.5393L10.5002 16.5393C10.1023 16.5393 9.7208 16.693 9.43949 16.9665C9.15819 17.24 9.00016 17.6109 9.00016 17.9977C9.00016 18.3844 9.15819 18.7554 9.43949 19.0289C9.7208 19.3024 10.1023 19.456 10.5002 19.456L21.8852 19.456L16.9352 24.2539C16.7946 24.3895 16.683 24.5508 16.6068 24.7285C16.5307 24.9062 16.4915 25.0968 16.4915 25.2893C16.4915 25.4818 16.5307 25.6725 16.6068 25.8502C16.683 26.0279 16.7946 26.1892 16.9352 26.3247C17.0746 26.4614 17.2405 26.5699 17.4233 26.644C17.6061 26.718 17.8021 26.7561 18.0002 26.7561C18.1982 26.7561 18.3942 26.718 18.577 26.644C18.7598 26.5699 18.9257 26.4614 19.0652 26.3247Z" fill="#21409A"/>
</g>
<defs>
<clipPath id="clip0_1027_522">
<rect y="0.497559" width="35.92" height="35" rx="17.5" fill="white"/>
</clipPath>
</defs>
</svg>
