<svg width="80" height="43" viewBox="0 0 80 43" fill="none" xmlns="http://www.w3.org/2000/svg">
<rect x="29.8066" y="5.37677" width="21.1782" height="27.5149" stroke="#F37030" stroke-opacity="0.5"/>
<rect x="37.7275" y="0.624268" width="6.12871" height="3.75248" stroke="#F37030" stroke-opacity="0.5"/>
<rect x="34.5596" y="2.20844" width="2.16832" height="2.16832" stroke="#F37030" stroke-opacity="0.5"/>
<rect x="44.8564" y="2.20844" width="2.16832" height="2.16832" stroke="#F37030" stroke-opacity="0.5"/>
<rect x="4.75195" y="35.7679" width="3.9604" height="0.792079" rx="0.39604" transform="rotate(90 4.75195 35.7679)" fill="#F37030" fill-opacity="0.5"/>
<rect x="7.91992" y="35.7679" width="3.9604" height="0.792079" rx="0.39604" transform="rotate(90 7.91992 35.7679)" fill="#F37030" fill-opacity="0.5"/>
<rect x="11.0889" y="35.7679" width="3.9604" height="0.792079" rx="0.39604" transform="rotate(90 11.0889 35.7679)" fill="#F37030" fill-opacity="0.5"/>
<rect x="14.2568" y="35.7679" width="3.9604" height="0.792079" rx="0.39604" transform="rotate(90 14.2568 35.7679)" fill="#F37030" fill-opacity="0.5"/>
<rect x="17.4248" y="35.7679" width="3.9604" height="0.792079" rx="0.39604" transform="rotate(90 17.4248 35.7679)" fill="#F37030" fill-opacity="0.5"/>
<rect x="20.5938" y="35.7679" width="3.9604" height="0.792079" rx="0.39604" transform="rotate(90 20.5938 35.7679)" fill="#F37030" fill-opacity="0.5"/>
<rect x="23.7617" y="35.7679" width="3.9604" height="0.792079" rx="0.39604" transform="rotate(90 23.7617 35.7679)" fill="#F37030" fill-opacity="0.5"/>
<rect x="57.8213" y="35.7679" width="3.9604" height="0.792079" rx="0.39604" transform="rotate(90 57.8213 35.7679)" fill="#F37030" fill-opacity="0.5"/>
<rect x="60.9893" y="35.7679" width="3.9604" height="0.792079" rx="0.39604" transform="rotate(90 60.9893 35.7679)" fill="#F37030" fill-opacity="0.5"/>
<rect x="64.1582" y="35.7679" width="3.9604" height="0.792079" rx="0.39604" transform="rotate(90 64.1582 35.7679)" fill="#F37030" fill-opacity="0.5"/>
<rect x="67.3262" y="35.7679" width="3.9604" height="0.792079" rx="0.39604" transform="rotate(90 67.3262 35.7679)" fill="#F37030" fill-opacity="0.5"/>
<rect x="70.4941" y="35.7679" width="3.9604" height="0.792079" rx="0.39604" transform="rotate(90 70.4941 35.7679)" fill="#F37030" fill-opacity="0.5"/>
<rect x="73.6631" y="35.7679" width="3.9604" height="0.792079" rx="0.39604" transform="rotate(90 73.6631 35.7679)" fill="#F37030" fill-opacity="0.5"/>
<rect x="76.8311" y="35.7679" width="3.9604" height="0.792079" rx="0.39604" transform="rotate(90 76.8311 35.7679)" fill="#F37030" fill-opacity="0.5"/>
<circle cx="32.8717" cy="8.44111" r="1.18812" fill="#F37030" fill-opacity="0.5"/>
<circle cx="47.9205" cy="8.44111" r="1.18812" fill="#F37030" fill-opacity="0.5"/>
<rect x="10.7969" y="17.2579" width="18.0099" height="15.6337" stroke="#F37030" stroke-opacity="0.5"/>
<line x1="16.3418" y1="16.7579" x2="16.3418" y2="32.5995" stroke="#F37030" stroke-opacity="0.5"/>
<rect x="9.50488" y="15.1738" width="20.5941" height="1.58416" rx="0.792079" fill="#F37030" fill-opacity="0.5"/>
<circle cx="18.6139" cy="21.1144" r="1.18812" fill="#F37030" fill-opacity="0.5"/>
<circle cx="18.6139" cy="25.0748" r="1.18812" fill="#F37030" fill-opacity="0.5"/>
<circle cx="18.6139" cy="28.2431" r="1.18812" fill="#F37030" fill-opacity="0.5"/>
<circle cx="22.5739" cy="25.0748" r="1.18812" fill="#F37030" fill-opacity="0.5"/>
<circle cx="22.5739" cy="21.1144" r="1.18812" fill="#F37030" fill-opacity="0.5"/>
<circle cx="26.5348" cy="25.0748" r="1.18812" fill="#F37030" fill-opacity="0.5"/>
<circle cx="22.5739" cy="28.2431" r="1.18812" fill="#F37030" fill-opacity="0.5"/>
<circle cx="26.5348" cy="21.1144" r="1.18812" fill="#F37030" fill-opacity="0.5"/>
<circle cx="26.5348" cy="28.2431" r="1.18812" fill="#F37030" fill-opacity="0.5"/>
<rect x="-0.5" y="0.5" width="18.0099" height="15.6337" transform="matrix(-1 0 0 1 69.4951 16.7579)" stroke="#F37030" stroke-opacity="0.5"/>
<line y1="-0.5" x2="15.8416" y2="-0.5" transform="matrix(0 1 1 0 64.9502 16.7579)" stroke="#F37030" stroke-opacity="0.5"/>
<rect width="20.5941" height="1.58416" rx="0.792079" transform="matrix(-1 0 0 1 71.2871 15.1738)" fill="#F37030" fill-opacity="0.5"/>
<circle cx="1.18812" cy="1.18812" r="1.18812" transform="matrix(-1 0 0 1 63.3662 19.9263)" fill="#F37030" fill-opacity="0.5"/>
<circle cx="1.18812" cy="1.18812" r="1.18812" transform="matrix(-1 0 0 1 63.3662 23.8867)" fill="#F37030" fill-opacity="0.5"/>
<circle cx="1.18812" cy="1.18812" r="1.18812" transform="matrix(-1 0 0 1 63.3662 27.055)" fill="#F37030" fill-opacity="0.5"/>
<circle cx="1.18812" cy="1.18812" r="1.18812" transform="matrix(-1 0 0 1 59.4062 23.8867)" fill="#F37030" fill-opacity="0.5"/>
<circle cx="1.18812" cy="1.18812" r="1.18812" transform="matrix(-1 0 0 1 59.4062 19.9263)" fill="#F37030" fill-opacity="0.5"/>
<circle cx="1.18812" cy="1.18812" r="1.18812" transform="matrix(-1 0 0 1 55.4453 23.8867)" fill="#F37030" fill-opacity="0.5"/>
<circle cx="1.18812" cy="1.18812" r="1.18812" transform="matrix(-1 0 0 1 59.4062 27.055)" fill="#F37030" fill-opacity="0.5"/>
<circle cx="1.18812" cy="1.18812" r="1.18812" transform="matrix(-1 0 0 1 55.4453 19.9263)" fill="#F37030" fill-opacity="0.5"/>
<circle cx="1.18812" cy="1.18812" r="1.18812" transform="matrix(-1 0 0 1 55.4453 27.055)" fill="#F37030" fill-opacity="0.5"/>
<rect x="33.7676" y="11.7134" width="14.0495" height="20.3861" stroke="#F37030" stroke-opacity="0.5"/>
<rect x="0.5" y="33.8916" width="79" height="7.71287" stroke="#F37030" stroke-opacity="0.5"/>
<rect x="29.8066" y="33.8916" width="21.1782" height="1.37624" stroke="#F37030" stroke-opacity="0.5"/>
<rect x="28.2227" y="36.2679" width="24.3465" height="1.37624" stroke="#F37030" stroke-opacity="0.5"/>
<rect x="27.4307" y="38.6441" width="25.9307" height="1.37624" stroke="#F37030" stroke-opacity="0.5"/>
</svg>
