<svg width="128" height="53" viewBox="0 0 128 53" fill="none" xmlns="http://www.w3.org/2000/svg">
<path d="M32.9174 32.6096C31.9645 31.5473 30.4087 31.0103 28.2889 31.0103C26.1691 31.0103 24.3955 31.5862 22.8824 32.7225C21.3655 33.8666 20.4243 35.3298 20.0898 37.0732L18.4717 45.5254C18.0945 47.5023 18.4095 49.09 19.4091 50.238C20.4087 51.386 21.9606 51.9697 24.0299 51.9697C28.6273 51.9697 31.3616 49.8372 32.1706 45.6305L32.3767 44.5642H26.7953L26.6319 45.4281C26.4725 46.2687 26.2508 46.8563 26.0057 47.1209C25.7607 47.3778 25.4067 47.5023 24.9128 47.5023C24.5822 47.5023 24.3488 47.4128 24.1971 47.2299C23.9443 46.9263 23.9015 46.3426 24.061 45.5021L24.6366 42.5134H32.7696L33.7964 37.1666C34.1698 35.213 33.8781 33.6837 32.9213 32.6135M28.6273 37.3456L28.3472 38.7893H25.329L25.6362 37.1977C25.9007 35.7111 26.7525 35.3959 27.4176 35.3959C27.9738 35.3959 28.3511 35.5788 28.5456 35.9446C28.7128 36.2598 28.7401 36.719 28.6273 37.3456Z" fill="#21409A"/>
<path d="M18.3663 26.6712C17.2617 25.3559 15.2741 24.6865 12.4503 24.6865H4.7491L0 51.6466H6.26212L8.09019 41.2681H10.7351C12.9326 41.2681 14.819 40.5014 16.3398 38.9838C17.8451 37.4855 18.8369 35.4231 19.2881 32.8469C19.7782 30.0645 19.4709 27.9865 18.3663 26.6673M10.1088 29.7921H11.1707C12.0692 29.7921 12.6487 29.9828 12.886 30.3564C13.0649 30.6366 13.2205 31.2864 12.9599 32.7808C12.7148 34.1506 12.3803 35.0806 11.968 35.5437C11.5752 35.9796 10.9295 36.1975 10.0505 36.1975H8.977L10.105 29.7921H10.1088Z" fill="#21409A"/>
<path d="M48.3777 31.1465C47.4092 31.1465 46.6857 31.2049 46.1684 31.3177C45.655 31.4345 45.1105 31.6407 44.5037 31.952C44.2003 32.1077 43.9009 32.2984 43.6014 32.528L43.8036 31.3683H38.0471L34.4766 51.6467H40.2369L42.524 38.6531C42.6484 37.941 43.0179 37.3962 43.6597 36.9954C44.3248 36.579 45.0949 36.3688 45.9467 36.3688C46.4718 36.3688 46.9502 36.47 47.3742 36.6724L47.8332 36.8942L48.8444 31.1465H48.3855H48.3777Z" fill="#21409A"/>
<path d="M58.0275 29.8818C58.0275 29.8818 58.257 29.8817 58.6187 29.944C58.9766 30.0063 60.1862 30.2475 60.1862 30.2475L60.9952 25.6595C60.9952 25.6595 60.3885 25.4533 59.5094 25.356C58.8754 25.2859 58.1598 25.2937 58.1598 25.2937C57.3507 25.3132 56.569 25.3677 55.6821 25.5817C54.7642 25.7957 53.9902 26.1849 53.4379 26.6051C52.2866 27.5041 51.4892 29.3525 51.0886 30.7612C50.6958 32.1505 47.4014 51.6506 47.4014 51.6506H53.0839L55.5071 37.5713H58.2414L59.0077 33.2245H56.2695L56.7129 30.8391C56.8996 30.0685 57.3585 29.8856 58.0236 29.8856" fill="#21409A"/>
<path d="M59.043 51.6464H64.8033L68.3778 31.4419H62.6174L59.043 51.6464Z" fill="#21409A"/>
<path d="M80.4473 36.3413C80.4473 36.3413 80.4508 36.3483 80.4543 36.3483C80.4508 36.3413 80.4473 36.3413 80.4473 36.3413Z" fill="#21409A"/>
<path d="M80.4459 36.3399C80.4459 36.3399 80.439 36.3365 80.4355 36.3296C80.4355 36.3365 80.4424 36.3399 80.4459 36.3399Z" fill="#21409A"/>
<path d="M85.8652 32.1931C85.3324 31.5588 84.465 31.2319 83.2904 31.2319C82.5864 31.2319 81.649 31.4343 80.8517 31.7106C80.3888 31.8507 79.7431 32.0686 78.9458 32.4149C78.4635 32.6212 78.2068 32.7263 77.9345 32.8469L78.1796 31.4537H72.4192L68.8447 51.7322H74.609L77.2383 37.182C77.2694 37.0108 77.5028 36.466 77.8801 36.322C78.1873 36.1585 79.0002 35.8667 79.5642 35.8005C79.6342 35.7966 79.712 35.7927 79.782 35.7888C79.817 35.7888 79.852 35.7888 79.8793 35.7888C80.0815 35.7888 80.2643 35.8122 80.3421 35.9056C80.4588 36.0457 80.4783 36.3375 80.451 36.3531C80.4588 36.3687 80.4588 36.4154 80.416 36.6839L77.7634 51.7322H83.4849L86.3709 35.3374C86.6198 33.9482 86.4448 32.8936 85.8613 32.197" fill="#21409A"/>
<path d="M95.1448 35.7968H98.307L99.0732 31.4501H95.9111L96.8718 26.0176L90.9792 28.4147L87.7275 46.8486C87.4241 48.5608 87.7159 49.88 88.591 50.7751C89.4545 51.6545 90.7808 52.0982 92.5388 52.0982C92.9045 52.0982 93.6357 52.0164 94.8453 51.8413C94.9892 51.818 95.1798 51.7946 95.4171 51.7713L95.7088 51.744L96.5178 47.1677L94.8142 47.4673C94.3591 47.5452 94.1219 47.5646 93.9974 47.5646C93.7602 47.5646 93.5968 47.5179 93.5151 47.4167C93.4062 47.2844 93.379 47.0159 93.4451 46.6501L95.1409 35.7968H95.1448Z" fill="#21409A"/>
<path d="M104.371 14.3276C100.754 17.0711 96.3977 18.7911 91.917 18.9507C96.3433 19.1141 100.093 20.8342 102.742 23.5738L108.805 18.9507L104.371 14.3276Z" fill="#F37030"/>
<path d="M115.709 12.549C113.519 9.41249 112.516 5.35758 113.138 0.901855C112.193 5.35758 109.762 9.41249 106.464 12.549L110.159 17.8025L115.709 12.549Z" fill="#F37030"/>
<path d="M115.541 23.5738C119.159 20.8303 123.519 19.1141 128 18.9507C123.573 18.7911 119.824 17.0711 117.171 14.3276L111.107 18.9507L115.541 23.5738Z" fill="#F37030"/>
<path d="M104.208 25.356C106.398 28.4926 107.397 32.5475 106.775 37.0032C107.72 32.5475 110.155 28.4926 113.449 25.356L109.751 20.1064L104.204 25.356H104.208Z" fill="#F37030"/>
<path d="M101.801 48.3583H100.646V47.9419H103.458V48.3583H102.295V51.74H101.801V48.3583Z" fill="#231F20"/>
<path d="M107.071 50.0744C107.044 49.5452 107.009 48.9031 107.009 48.4322H106.997C106.861 48.872 106.709 49.3506 106.518 49.876L105.846 51.7205H105.472L104.854 49.911C104.675 49.3701 104.527 48.8836 104.422 48.4322H104.41C104.399 48.907 104.371 49.5374 104.336 50.1133L104.235 51.7439H103.769L104.033 47.9458H104.659L105.309 49.7826C105.464 50.2495 105.589 50.6698 105.69 51.0629H105.702C105.803 50.6776 105.939 50.2612 106.11 49.7826L106.787 47.9458H107.413L107.65 51.7439H107.168L107.079 50.0744H107.071Z" fill="#231F20"/>
</svg>
