<svg width="37" height="38" viewBox="0 0 37 38" fill="none" xmlns="http://www.w3.org/2000/svg">
<path d="M27.6795 29.3671L20.0404 21.7281C19.4595 22.2315 18.7821 22.6237 18.0084 22.9044C17.2346 23.1852 16.4112 23.3256 15.5383 23.3256C13.4438 23.3256 11.6713 22.5994 10.2205 21.1472C8.7698 19.6949 8.04443 17.9424 8.04443 15.8898C8.04443 13.8373 8.77058 12.0848 10.2229 10.6325C11.6752 9.18025 13.4324 8.4541 15.4947 8.4541C17.557 8.4541 19.3094 9.18025 20.752 10.6325C22.1946 12.0848 22.9159 13.8387 22.9159 15.8942C22.9159 16.7239 22.7804 17.5261 22.5093 18.3007C22.2382 19.0752 21.8316 19.8014 21.2894 20.4791L28.9575 28.0891L27.6795 29.3671ZM15.5092 21.5828C17.0826 21.5828 18.4199 21.0261 19.5212 19.9127C20.6225 18.7993 21.1732 17.4583 21.1732 15.8898C21.1732 14.3214 20.6225 12.9804 19.5212 11.867C18.4199 10.7536 17.0826 10.1969 15.5092 10.1969C13.9198 10.1969 12.5687 10.7536 11.4561 11.867C10.3435 12.9804 9.78719 14.3214 9.78719 15.8898C9.78719 17.4583 10.3435 18.7993 11.4561 19.9127C12.5687 21.0261 13.9198 21.5828 15.5092 21.5828Z" fill="#F07F48"/>
<path d="M18.5 0.910645C28.4411 0.910645 36.5 8.96952 36.5 18.9106C36.5 28.8518 28.4411 36.9106 18.5 36.9106C8.55888 36.9106 0.500002 28.8518 0.5 18.9106C0.5 8.96952 8.55887 0.910647 18.5 0.910645Z" stroke="#F07F48"/>
</svg>
